{
  "accessors": [
    {
      "bufferView": 2,
      "componentType": 5126,
      "count": 5720,
      "max": [
        4.577218055725098,
        5.041633129119873,
        12.41581916809082
      ],
      "min": [
        -4.577218055725098,
        -8.189685821533203,
        -0.002509000012651086
      ],
      "type": "VEC3"
    },
    {
      "bufferView": 2,
      "byteOffset": 68640,
      "componentType": 5126,
      "count": 5720,
      "max": [
        1.0,
        1.0,
        1.0
      ],
      "min": [
        -1.0,
        -1.0,
        -1.0
      ],
      "type": "VEC3"
    },
    {
      "bufferView": 1,
      "componentType": 5126,
      "count": 5720,
      "max": [
        0.9944639801979065,
        0.997078001499176
      ],
      "min": [
        0.001969000091776252,
        0.0038139999378472567
      ],
      "type": "VEC2"
    },
    {
      "bufferView": 0,
      "componentType": 5125,
      "count": 21834,
      "type": "SCALAR"
    }
  ],
  "asset": {
    "extras": {
      "author": "ivan.vladimirov08 (https://sketchfab.com/ivan.vladimirov08)",
      "license": "CC-BY-4.0 (http://creativecommons.org/licenses/by/4.0/)",
      "source": "https://sketchfab.com/3d-models/shelly-brawl-stars-67f14b4231704a00bdc2d6cbc6ad84d1",
      "title": "Shelly (Brawl Stars)"
    },
    "generator": "Sketchfab-12.29.0",
    "version": "2.0"
  },
  "bufferViews": [
    {
      "buffer": 0,
      "byteLength": 87336,
      "name": "floatBufferViews",
      "target": 34963
    },
    {
      "buffer": 0,
      "byteLength": 45760,
      "byteOffset": 87336,
      "byteStride": 8,
      "name": "floatBufferViews",
      "target": 34962
    },
    {
      "buffer": 0,
      "byteLength": 137280,
      "byteOffset": 133096,
      "byteStride": 12,
      "name": "floatBufferViews",
      "target": 34962
    }
  ],
  "buffers": [
    {
      "byteLength": 270376,
      "uri": "scene.bin"
    }
  ],
  "images": [
    {
      "uri": "textures/Default_OBJ_baseColor.png"
    }
  ],
  "materials": [
    {
      "doubleSided": true,
      "name": "Default_OBJ",
      "pbrMetallicRoughness": {
        "baseColorTexture": {
          "index": 0
        },
        "metallicFactor": 0.0,
        "roughnessFactor": 0.8063508326896291
      }
    }
  ],
  "meshes": [
    {
      "name": "Object_0",
      "primitives": [
        {
          "attributes": {
            "NORMAL": 1,
            "POSITION": 0,
            "TEXCOORD_0": 2
          },
          "indices": 3,
          "material": 0,
          "mode": 4
        }
      ]
    }
  ],
  "nodes": [
    {
      "children": [
        1
      ],
      "matrix": [
        1.0,
        0.0,
        0.0,
        0.0,
        0.0,
        2.220446049250313e-16,
        -1.0,
        0.0,
        0.0,
        1.0,
        2.220446049250313e-16,
        0.0,
        0.0,
        0.0,
        0.0,
        1.0
      ],
      "name": "Sketchfab_model"
    },
    {
      "children": [
        2
      ],
      "name": "Shelly.obj.cleaner.materialmerger.gles"
    },
    {
      "mesh": 0,
      "name": "Object_2"
    }
  ],
  "samplers": [
    {
      "magFilter": 9729,
      "minFilter": 9987,
      "wrapS": 10497,
      "wrapT": 10497
    }
  ],
  "scene": 0,
  "scenes": [
    {
      "name": "Sketchfab_Scene",
      "nodes": [
        0
      ]
    }
  ],
  "textures": [
    {
      "sampler": 0,
      "source": 0
    }
  ]
}
