{
  "accessors": [
    {
      "bufferView": 2,
      "componentType": 5126,
      "count": 2309,
      "max": [
        1.6768170595169067,
        2.6325559616088867,
        1.3822610378265381
      ],
      "min": [
        -1.6823040246963501,
        -2.7114698886871338,
        -0.020058000460267067
      ],
      "type": "VEC3"
    },
    {
      "bufferView": 2,
      "byteOffset": 27708,
      "componentType": 5126,
      "count": 2309,
      "max": [
        1,
        0.99386590719223022,
        0.99933373928070068
      ],
      "min": [
        -1,
        -0.99386590719223022,
        -0.99933373928070068
      ],
      "type": "VEC3"
    },
    {
      "bufferView": 1,
      "componentType": 5126,
      "count": 2309,
      "max": [
        0.9924359917640686,
        0.96766597032546997
      ],
      "min": [
        0.022037999704480171,
        0.0030829999595880508
      ],
      "type": "VEC2"
    },
    {
      "bufferView": 0,
      "componentType": 5125,
      "count": 9840,
      "max": [
        2308
      ],
      "min": [
        0
      ],
      "type": "SCALAR"
    },
    {
      "bufferView": 2,
      "byteOffset": 55416,
      "componentType": 5126,
      "count": 1930,
      "max": [
        1.0497399568557739,
        2.145366907119751,
        1.0045210123062134
      ],
      "min": [
        -1.0497399568557739,
        -2.227229118347168,
        0.31309300661087036
      ],
      "type": "VEC3"
    },
    {
      "bufferView": 2,
      "byteOffset": 78576,
      "componentType": 5126,
      "count": 1930,
      "max": [
        1,
        1,
        1
      ],
      "min": [
        -1,
        -1,
        -1
      ],
      "type": "VEC3"
    },
    {
      "bufferView": 1,
      "byteOffset": 18472,
      "componentType": 5126,
      "count": 1930,
      "max": [
        0.92583602666854858,
        0.35532599687576294
      ],
      "min": [
        0.86012101173400879,
        0.26440000534057617
      ],
      "type": "VEC2"
    },
    {
      "bufferView": 0,
      "byteOffset": 39360,
      "componentType": 5125,
      "count": 5040,
      "max": [
        1929
      ],
      "min": [
        0
      ],
      "type": "SCALAR"
    },
    {
      "bufferView": 2,
      "byteOffset": 101736,
      "componentType": 5126,
      "count": 71,
      "max": [
        1.2041250467300415,
        -0.24993699789047241,
        2.1703109741210938
      ],
      "min": [
        -1.2073620557785034,
        -1.0748330354690552,
        1.4988440275192261
      ],
      "type": "VEC3"
    },
    {
      "bufferView": 2,
      "byteOffset": 102588,
      "componentType": 5126,
      "count": 71,
      "max": [
        0.92832159996032715,
        0.34800806641578674,
        0.77245634794235229
      ],
      "min": [
        -0.92958748340606689,
        -0.72224205732345581,
        0.13080303370952606
      ],
      "type": "VEC3"
    },
    {
      "bufferView": 1,
      "byteOffset": 33912,
      "componentType": 5126,
      "count": 71,
      "max": [
        0.89052498340606689,
        0.66138797998428345
      ],
      "min": [
        0.10937599837779999,
        0.35928499698638916
      ],
      "type": "VEC2"
    },
    {
      "bufferView": 0,
      "byteOffset": 59520,
      "componentType": 5125,
      "count": 318,
      "max": [
        70
      ],
      "min": [
        0
      ],
      "type": "SCALAR"
    },
    {
      "bufferView": 2,
      "byteOffset": 103440,
      "componentType": 5126,
      "count": 4831,
      "max": [
        1.7970410585403442,
        3.6127109527587891,
        2.3497240543365479
      ],
      "min": [
        -1.7822079658508301,
        -3.4397308826446533,
        0.13668300211429596
      ],
      "type": "VEC3"
    },
    {
      "bufferView": 2,
      "byteOffset": 161412,
      "componentType": 5126,
      "count": 4831,
      "max": [
        1,
        1,
        1
      ],
      "min": [
        -1,
        -0.9999549388885498,
        -0.99998486042022705
      ],
      "type": "VEC3"
    },
    {
      "bufferView": 1,
      "byteOffset": 34480,
      "componentType": 5126,
      "count": 4831,
      "max": [
        0.99897599220275879,
        0.99349802732467651
      ],
      "min": [
        0.0068740001879632473,
        0.0042650001123547554
      ],
      "type": "VEC2"
    },
    {
      "bufferView": 0,
      "byteOffset": 60792,
      "componentType": 5125,
      "count": 22395,
      "max": [
        4830
      ],
      "min": [
        0
      ],
      "type": "SCALAR"
    }
  ],
  "asset": {
    "extras": {
      "author": "gotbeans (https://sketchfab.com/owen.cameron)",
      "license": "CC-BY-4.0 (http://creativecommons.org/licenses/by/4.0/)",
      "source": "https://sketchfab.com/3d-models/lightning-mcqueen-disneys-cars-a777bdfbc1104dda9f27f8feb7e27902",
      "title": "Lightning McQueen | Disneys Cars"
    },
    "generator": "Sketchfab-10.29.0",
    "version": "2.0"
  },
  "bufferViews": [
    {
      "buffer": 0,
      "byteLength": 150372,
      "byteOffset": 0,
      "name": "floatBufferViews",
      "target": 34963
    },
    {
      "buffer": 0,
      "byteLength": 73128,
      "byteOffset": 150372,
      "byteStride": 8,
      "name": "floatBufferViews",
      "target": 34962
    },
    {
      "buffer": 0,
      "byteLength": 219384,
      "byteOffset": 223500,
      "byteStride": 12,
      "name": "floatBufferViews",
      "target": 34962
    }
  ],
  "buffers": [
    {
      "byteLength": 442884,
      "uri": "scene.bin"
    }
  ],
  "images": [
    {
      "uri": "textures/Character_Mcqueen_Body_MAT_baseColor.png"
    },
    {
      "uri": "textures/Character_Mcqueen_Wheel_MAT_baseColor.png"
    },
    {
      "uri": "textures/Texture2DCharacter_Eyes_TEX.png_baseColor.png"
    }
  ],
  "materials": [
    {
      "doubleSided": true,
      "emissiveFactor": [
        0,
        0,
        0
      ],
      "name": "Character_Mcqueen_Body_MAT",
      "pbrMetallicRoughness": {
        "baseColorFactor": [
          1,
          1,
          1,
          1
        ],
        "baseColorTexture": {
          "index": 0,
          "texCoord": 0
        },
        "metallicFactor": 0,
        "roughnessFactor": 0
      }
    },
    {
      "doubleSided": true,
      "emissiveFactor": [
        0,
        0,
        0
      ],
      "name": "Character_Mcqueen_Wheel_MAT",
      "pbrMetallicRoughness": {
        "baseColorFactor": [
          1,
          1,
          1,
          1
        ],
        "baseColorTexture": {
          "index": 1,
          "texCoord": 0
        },
        "metallicFactor": 0,
        "roughnessFactor": 1
      }
    },
    {
      "doubleSided": true,
      "emissiveFactor": [
        0,
        0,
        0
      ],
      "name": "Default-Material",
      "pbrMetallicRoughness": {
        "baseColorFactor": [
          0.42217500000000002,
          0.42217500000000002,
          0.42217500000000002,
          1
        ],
        "metallicFactor": 0,
        "roughnessFactor": 0.84349154199267129
      }
    },
    {
      "doubleSided": true,
      "emissiveFactor": [
        0,
        0,
        0
      ],
      "name": "Texture2DCharacter_Eyes_TEX.png",
      "pbrMetallicRoughness": {
        "baseColorFactor": [
          1,
          1,
          1,
          1
        ],
        "baseColorTexture": {
          "index": 2,
          "texCoord": 0
        },
        "metallicFactor": 0,
        "roughnessFactor": 0.84349154199267129
      }
    }
  ],
  "meshes": [
    {
      "primitives": [
        {
          "attributes": {
            "NORMAL": 1,
            "POSITION": 0,
            "TEXCOORD_0": 2
          },
          "indices": 3,
          "material": 1,
          "mode": 4
        }
      ]
    },
    {
      "primitives": [
        {
          "attributes": {
            "NORMAL": 5,
            "POSITION": 4,
            "TEXCOORD_0": 6
          },
          "indices": 7,
          "material": 2,
          "mode": 4
        }
      ]
    },
    {
      "primitives": [
        {
          "attributes": {
            "NORMAL": 9,
            "POSITION": 8,
            "TEXCOORD_0": 10
          },
          "indices": 11,
          "material": 3,
          "mode": 4
        }
      ]
    },
    {
      "primitives": [
        {
          "attributes": {
            "NORMAL": 13,
            "POSITION": 12,
            "TEXCOORD_0": 14
          },
          "indices": 15,
          "material": 0,
          "mode": 4
        }
      ]
    }
  ],
  "nodes": [
    {
      "children": [
        1
      ],
      "name": "RootNode (gltf orientation matrix)",
      "rotation": [
        -0.70710678118654746,
        -0,
        -0,
        0.70710678118654757
      ]
    },
    {
      "children": [
        2
      ],
      "name": "RootNode (model correction matrix)"
    },
    {
      "children": [
        3,
        4,
        5,
        6
      ],
      "name": "LightingMcqueen.obj.cleaner.materialmerger.gles"
    },
    {
      "mesh": 0,
      "name": ""
    },
    {
      "mesh": 1,
      "name": ""
    },
    {
      "mesh": 2,
      "name": ""
    },
    {
      "mesh": 3,
      "name": ""
    }
  ],
  "samplers": [
    {
      "magFilter": 9729,
      "minFilter": 9987,
      "wrapS": 10497,
      "wrapT": 10497
    }
  ],
  "scene": 0,
  "scenes": [
    {
      "name": "OSG_Scene",
      "nodes": [
        0
      ]
    }
  ],
  "textures": [
    {
      "sampler": 0,
      "source": 0
    },
    {
      "sampler": 0,
      "source": 1
    },
    {
      "sampler": 0,
      "source": 2
    }
  ]
}

